<svg width="138" height="43" viewBox="0 0 138 43" fill="none" xmlns="http://www.w3.org/2000/svg">
<g id="&#208;&#160;&#208;&#181;&#209;&#129;&#209;&#131;&#209;&#128;&#209;&#129; 1 1">
<g id="&#208;&#161;&#208;&#187;&#208;&#190;&#208;&#185; 2">
<g id="&#208;&#161;&#208;&#187;&#208;&#190;&#208;&#185; 0 + &#208;&#159;&#209;&#128;&#209;&#143;&#208;&#188;&#208;&#190;&#209;&#131;&#208;&#179;&#208;&#190;&#208;&#187;&#209;&#140;&#208;&#189;&#208;&#184;&#208;&#186; 3 + &#208;&#147;&#209;&#128;&#209;&#131;&#208;&#191;&#208;&#191;&#208;&#176; 1&#194;&#160;&#208;&#152;&#208;&#183;&#208;&#190;&#208;&#177;&#209;&#128;&#208;&#176;&#208;&#182;&#208;&#181;&#208;&#189;&#208;&#184;&#208;&#181; (&#208;&#186;&#208;&#190;&#208;&#191;&#208;&#184;&#209;&#143;)">
<path id="Vector" d="M0 43H6.83893V14.5112L0 9.90039V43Z" fill="white"/>
<path id="Vector_2" d="M0 0V8.26529L22.7851 23.6218V15.3565L0 0Z" fill="white"/>
<path id="Vector_3" d="M40.2041 14.5069V43H47.043V9.90039L40.2041 14.5069Z" fill="white"/>
<path id="Vector_4" d="M65.4316 24.4073L77.837 42.9999H86.0676L71.1088 20.582L65.4316 24.4073Z" fill="white"/>
<path id="Vector_5" d="M57.8819 0H51.043V43H57.8819V0Z" fill="white"/>
<path id="Vector_6" d="M47.0211 0L24.2402 15.3565V23.6218L47.0211 8.26529V0Z" fill="white"/>
<path id="Vector_7" d="M86.9572 0L59.5078 18.4987V26.764L86.9572 8.26529V0Z" fill="white"/>
<path id="Vector_8" d="M90.957 43H97.796V14.5112L90.957 9.90039V43Z" fill="white"/>
<path id="Vector_9" d="M90.957 0V8.26529L113.742 23.6218V15.3565L90.957 0Z" fill="white"/>
<path id="Vector_10" d="M131.161 14.5069V43H138V9.90039L131.161 14.5069Z" fill="white"/>
<path id="Vector_11" d="M137.983 0L115.198 15.3565V23.6218L137.983 8.26529V0Z" fill="white"/>
</g>
</g>
</g>
</svg>
